<svg fill="none" viewBox="0 0 132 152"><defs/><mask id="a" width="132" height="152" x="0" y="0" maskUnits="userSpaceOnUse"><path fill="#fff" d="M43.3013 75L0 0h86.6025L43.3013 75zm45 77L45 77h86.603l-43.3017 75zm-45-75l43.3012 75H0l43.3013-75z"/><path fill="#fff" fill-rule="evenodd" d="M131.603 75L88.3013 0 45 75h86.603zM94.52 70.7656c.2084.2084.5013.3581.8789.4492.8724-.4036 1.7643-.7812 2.6758-1.1328.9245-.3646 1.8099-.7617 2.6563-1.1914.846-.4297 1.628-.9245 2.344-1.4844.716-.5598 1.308-1.25 1.777-2.0703v-.2734c0-.0651.007-.1237.02-.1758l.039-.1562c.013-.0521.032-.1172.058-.1953-.052-.8334-.241-1.556-.566-2.168-.326-.612-.736-1.1524-1.231-1.6211-.481-.4818-1.022-.918-1.621-1.3086-.586-.4036-1.159-.8073-1.7185-1.2109-.3646-.0912-.7357-.2084-1.1133-.3516-.3776-.1562-.7617-.3125-1.1523-.4688-.3906-.1692-.7878-.3385-1.1914-.5078-.4037-.1692-.8138-.319-1.2305-.4492-.1041.1823-.1758.3841-.2148.6055-.0391.2213-.1107.4492-.2149.6836.0782.2995.1563.5664.2344.8008.0912.2213.1367.4492.1367.6836h-.3125c-.1041 0-.1432.0585-.1172.1757.0261.0521.0261.1172 0 .1954-.026.0651-.0455.1692-.0586.3124.1823.6641.3125 1.3868.3907 2.168.0781.7813.0651 1.543-.0391 2.2852-.0781.039-.1562.1172-.2344.2344-.039.4166-.1172.8203-.2343 1.2109-.1172.3906-.2474.7943-.3907 1.2109.0131.2084-.026.3711-.1172.4883-.0781.1172-.1432.2604-.1953.4297.0391.3776.0716.7422.0977 1.0937.0391.3516.1042.6771.1953.9766.1042.2865.2539.5404.4492.7617zm2.5391-10.5468c.0521-.0521.1367-.0782.2539-.0782.1432.1302.3516.2344.625.3125.2734.0651.5794.1888.918.3711.2213.013.4101.0586.5664.1367.1692.0782.3255.1628.4687.2539.1429.0782.2929.1628.4489.254.157.0781.339.1302.547.1562.091.1953.209.3711.352.5273l.469.4297c.169.1302.325.267.468.4102.157.1302.287.293.391.4883-.143.3255-.326.6054-.547.8398-.221.2344-.469.4427-.742.625-.274.1823-.573.3451-.899.4883-.325.1432-.6506.2799-.9762.4102-.0651.0651-.1432.1302-.2343.1953-.0782.052-.1433.1302-.1954.2343-.1953.0131-.371.0456-.5273.0977-.1432.0521-.2865.1107-.4297.1758-.1302.0651-.2604.1237-.3906.1758-.1302.052-.28.0846-.4492.0976.1172-.638.2083-1.2305.2734-1.7773.0651-.5469.0912-1.0808.0781-1.6016 0-.5208-.039-1.0417-.1172-1.5625-.0781-.5208-.1953-1.0742-.3515-1.6601zm7.4999 10.0585c.234.5469.606 1.0092 1.113 1.3868.274-.1042.502-.2084.684-.3125.182-.1042.332-.2279.449-.3711.117-.1433.202-.319.254-.5274.052-.2213.091-.4948.117-.8203.469-.664.99-1.289 1.563-1.875.573-.5859 1.172-1.1198 1.797-1.6016.416.5209.846 1.1394 1.289 1.8555.442.7162.781 1.4649 1.015 2.2461l1.328.9375c.092-.0911.202-.1562.332-.1953.144-.0521.287-.0977.43-.1367.091-.2474.241-.4883.449-.7227.209-.2344.365-.5273.469-.8789.013-.1953-.006-.3841-.058-.5664-.04-.1953-.098-.3906-.176-.5859-.065-.1953-.137-.3906-.215-.586-.078-.2083-.143-.4296-.195-.664-.17-.0782-.306-.1823-.411-.3125-.104-.1302-.201-.267-.293-.4102-.078-.1562-.162-.306-.253-.4492-.092-.1432-.209-.2669-.352-.3711-.052-.1432-.124-.2995-.215-.4687-.078-.1433-.182-.3125-.312-.5079-.118-.1953-.274-.4036-.469-.625.82-.7031 1.53-1.2695 2.129-1.6992.599-.4297 1.094-.7682 1.484-1.0156.456-.2865.847-.4948 1.172-.625.065-.2474.169-.4557.313-.625.143-.1823.28-.4036.41-.6641-.143-.1562-.261-.332-.352-.5273-.078-.2083-.169-.4102-.273-.6055-.091-.2083-.215-.4036-.371-.5859-.144-.1823-.345-.332-.606-.4492-.456.1823-.924.4297-1.406.7422-.469.2994-.938.6184-1.406.957-.456.3385-.905.6706-1.348.9961-.43.3255-.833.6055-1.211.8398-.104-.1692-.267-.4036-.488-.7031-.222-.3125-.469-.625-.742-.9375-.274-.3125-.56-.599-.86-.8594-.286-.2604-.553-.4297-.801-.5078 0-.0521-.019-.0846-.058-.0976-.026-.0131-.059-.0261-.098-.0391l-.078-.0781c-.013-.0391-.006-.0977.02-.1758-.118.0521-.241.0586-.371.0195-.118-.039-.248-.0846-.391-.1367-.13-.0651-.28-.1172-.449-.1563-.157-.052-.332-.0651-.528-.039.039.1042.046.2083.02.3125-.026.0911-.065.1888-.117.293-.052.1041-.104.2148-.157.332-.039.1172-.052.2409-.039.3711.092.2864.105.5534.039.8008-.052.2474-.11.4492-.175.6054.182.1693.325.3776.429.625.118.2344.163.4558.137.6641.039.0391.098.0456.176.0195.091-.026.143-.0065.156.0586.13.1953.274.3841.43.5664.156.1823.306.3646.449.5469.143.1823.273.3646.391.5469.117.1823.201.3646.254.5468-.092.1693-.215.3191-.372.4493-.143.1302-.293.2539-.449.3711-.143.1041-.28.2148-.41.332-.13.1172-.221.2539-.273.4102l-.84.8398c-.3.2995-.58.6185-.84.957-.247.3386-.462.6966-.645 1.0742-.169.3646-.267.7487-.293 1.1524-.182.5469-.149 1.1002.098 1.6601z" clip-rule="evenodd"/></mask><g mask="url(#a)"><path fill="#000" d="M.30127 0h131v152h-131z"/><path fill="url(#paint0_linear)" d="M.30127 0h131v152h-131z" style="mix-blend-mode:lighten"/></g><defs><linearGradient id="paint0_linear" x1="111.651" x2="-4.13581" y1="25.9294" y2="123.053" gradientUnits="userSpaceOnUse"><stop offset=".099473" stop-color="#FFD151"/><stop offset="1" stop-color="#B316DA"/></linearGradient></defs></svg>